<svg width="202" height="166" viewBox="0 0 202 166" fill="none" xmlns="http://www.w3.org/2000/svg">
<g clip-path="url(#clip0_56_370)">
<mask id="mask0_56_370" style="mask-type:alpha" maskUnits="userSpaceOnUse" x="0" y="0" width="83" height="159">
<path d="M0 0.127014H82.2241V158.287H0V0.127014Z" fill="white"/>
</mask>
<g mask="url(#mask0_56_370)">
<path fill-rule="evenodd" clip-rule="evenodd" d="M82.2241 19.4938L43.9711 4.07481C43.9711 4.07481 -8.61785 -17.1222 1.22815 38.7168L17.9361 133.474C17.9361 133.474 20.7091 149.191 29.6081 158.287C19.0561 146.447 30.7601 122.568 30.7601 122.568L76.4251 29.4288C78.3051 25.5928 80.2451 22.3078 82.2241 19.4938Z" fill="#052882"/>
</g>
<mask id="mask1_56_370" style="mask-type:alpha" maskUnits="userSpaceOnUse" x="29" y="4" width="173" height="161">
<path d="M29.6079 4.97476H201.739V164.786H29.6079V4.97476Z" fill="white"/>
</mask>
<g mask="url(#mask1_56_370)">
<path fill-rule="evenodd" clip-rule="evenodd" d="M190.025 89.8266L136.706 22.8726C136.706 22.8726 106.508 -15.0404 82.2239 19.4936L122.478 35.7186C175.066 56.9156 132.899 94.8206 132.899 94.8206L69.9489 151.407C59.4829 160.815 51.0099 164.444 44.1829 164.589C48.8569 165.036 54.5939 164.744 61.6119 163.488L169.533 144.171C169.533 144.171 225.346 134.181 190.025 89.8266ZM29.6079 158.287C30.4439 159.225 31.4239 160.086 32.5559 160.855C31.5069 160.084 30.5239 159.223 29.6079 158.287Z" fill="#662EFF"/>
</g>
<path fill-rule="evenodd" clip-rule="evenodd" d="M122.477 35.7185L82.2234 19.4935C80.2454 22.3075 78.3054 25.5935 76.4244 29.4285L30.7594 122.568C30.7594 122.568 19.0554 146.447 29.6074 158.287C30.5234 159.223 31.5074 160.084 32.5554 160.855C35.3754 162.77 39.1604 164.109 44.1824 164.589C51.0104 164.444 59.4834 160.815 69.9494 151.407L132.898 94.8205C132.898 94.8205 175.065 56.9155 122.477 35.7185Z" fill="#00137D"/>
<path fill-rule="evenodd" clip-rule="evenodd" d="M68.7063 63.324C62.3373 63.324 56.1263 65.203 50.8483 68.675V38.41H36.1953V59.018V90.115C36.1953 99.096 37.0953 107.252 42.4723 114.744C47.0623 121.14 53.9023 125.804 61.5943 127.552C63.5933 128.006 65.6363 128.265 67.6863 128.329C68.0263 128.339 68.3663 128.344 68.7063 128.344C86.6323 128.344 101.216 113.76 101.216 95.834C101.216 77.908 86.6323 63.324 68.7063 63.324ZM86.7553 95.834C86.7553 105.787 78.6593 113.884 68.7063 113.884C58.7533 113.884 50.6563 105.787 50.6563 95.834C50.6563 85.882 58.7533 77.785 68.7063 77.785C78.6593 77.785 86.7553 85.882 86.7553 95.834Z" fill="#FEFEFE"/>
<path fill-rule="evenodd" clip-rule="evenodd" d="M141.932 110.15C138.754 112.593 134.959 113.884 130.957 113.884C121.005 113.884 112.907 105.787 112.907 95.8348C112.907 85.8818 121.005 77.7848 130.957 77.7848C134.512 77.7848 137.911 78.8188 140.846 80.7568L143.037 82.3588L153.285 72.1108L151.633 70.7468C145.831 65.9598 138.488 63.3238 130.957 63.3238C113.031 63.3238 98.4465 77.9078 98.4465 95.8348C98.4465 113.761 113.031 128.345 130.957 128.345C138.492 128.345 145.836 125.708 151.641 120.918C151.7 120.868 151.759 120.817 151.817 120.765L153.515 119.337L143.287 109.109L141.932 110.15Z" fill="#FEFEFE"/>
</g>
<defs>
<clipPath id="clip0_56_370">
<rect width="202" height="165" fill="white" transform="translate(0 0.127014)"/>
</clipPath>
</defs>
</svg>
